<?xml version="1.0" standalone="no"?>
<!DOCTYPE svg PUBLIC "-//W3C//DTD SVG 20010904//EN"
 "http://www.w3.org/TR/2001/REC-SVG-20010904/DTD/svg10.dtd">
<svg version="1.0" xmlns="http://www.w3.org/2000/svg"
 width="860.000000pt" height="932.000000pt" viewBox="0 0 860.000000 932.000000"
 preserveAspectRatio="xMidYMid meet">

<g transform="translate(0.000000,932.000000) scale(0.100000,-0.100000)"
fill="#000000" stroke="none">
<path d="M1720 8349 c-134 -8 -204 -17 -290 -39 -58 -14 -160 -48 -182 -60
-10 -6 -25 -10 -33 -10 -8 0 -15 -4 -15 -10 0 -5 -7 -10 -16 -10 -9 0 -53 -26
-98 -57 -248 -174 -389 -414 -447 -763 -10 -59 -13 -866 -16 -3737 l-4 -3663
131 0 130 0 0 3598 c-1 1979 2 3636 5 3683 23 298 114 487 318 656 51 43 195
108 282 128 118 27 229 36 525 42 356 7 384 4 420 -47 15 -21 20 -44 20 -97 0
-201 110 -350 295 -399 41 -11 328 -14 1536 -14 1470 0 1488 0 1553 20 156 49
266 198 266 362 0 85 15 132 48 154 25 18 51 19 362 18 391 -2 508 -15 669
-73 190 -70 355 -239 425 -436 10 -27 21 -59 26 -70 15 -38 32 -151 41 -270 4
-66 9 -1725 9 -3687 l0 -3568 125 0 125 0 0 3608 c-1 2108 -5 3649 -10 3707
-5 55 -14 127 -20 160 -6 33 -14 77 -17 98 -3 20 -9 37 -14 37 -5 0 -9 10 -9
23 0 12 -12 45 -25 72 -14 28 -25 56 -25 63 0 6 -4 12 -10 12 -5 0 -10 6 -10
13 0 32 -101 169 -186 255 -51 50 -97 92 -101 92 -5 0 -18 8 -29 18 -24 22
-133 82 -150 82 -7 0 -14 4 -16 8 -1 4 -37 19 -78 32 -181 57 -231 62 -690 69
-595 9 -4659 9 -4820 0z m3358 -426 c4 -26 -1 -28 -29 -13 -27 15 -25 42 4 38
14 -2 23 -11 25 -25z"/>
<path d="M522 7190 c0 -19 2 -27 5 -17 2 9 2 25 0 35 -3 9 -5 1 -5 -18z"/>
<path d="M4107 2624 c-4 -4 -7 -70 -7 -146 0 -116 2 -138 15 -138 8 0 15 5 15
11 0 7 10 5 26 -6 32 -20 78 -12 99 18 23 33 20 128 -5 155 -22 23 -64 29 -90
12 -12 -8 -16 -1 -20 42 -5 48 -17 68 -33 52z m113 -129 c19 -23 18 -92 -3
-112 -13 -13 -23 -15 -44 -7 -24 8 -28 15 -31 56 -3 39 1 49 20 62 28 20 42
20 58 1z"/>
<path d="M5097 2623 c-4 -3 -7 -29 -7 -57 0 -39 -3 -47 -12 -38 -20 20 -67 14
-93 -13 -20 -19 -25 -34 -25 -77 0 -86 47 -126 111 -94 16 8 29 10 29 5 0 -5
7 -9 15 -9 13 0 15 23 15 145 0 114 -3 145 -13 145 -8 0 -17 -3 -20 -7z m-25
-130 c12 -11 18 -30 18 -58 0 -46 -13 -65 -45 -65 -32 0 -45 20 -45 66 0 64
34 91 72 57z"/>
<path d="M3657 2603 c-4 -3 -7 -64 -7 -135 0 -121 1 -128 20 -128 18 0 20 7
20 60 0 51 3 60 18 60 29 0 48 -21 67 -72 12 -34 23 -48 36 -48 25 0 24 14 -6
79 -14 30 -22 57 -17 60 19 12 33 54 27 78 -3 15 -18 30 -40 39 -35 14 -107
19 -118 7z m113 -52 c13 -25 13 -27 -6 -45 -8 -9 -29 -16 -45 -16 -27 0 -29 2
-29 40 0 39 1 40 35 40 24 0 37 -6 45 -19z"/>
<path d="M4660 2590 c0 -13 7 -20 20 -20 13 0 20 7 20 20 0 13 -7 20 -20 20
-13 0 -20 -7 -20 -20z"/>
<path d="M2499 2549 c-22 -22 -19 -55 9 -76 50 -40 111 36 66 81 -21 22 -50
20 -75 -5z"/>
<path d="M2696 2554 c-21 -21 -20 -57 2 -77 36 -32 85 -10 85 38 0 48 -55 72
-87 39z"/>
<path d="M2875 2550 c-37 -41 11 -104 61 -81 50 23 34 101 -21 101 -12 0 -30
-9 -40 -20z"/>
<path d="M3880 2456 c0 -62 4 -89 15 -100 25 -24 52 -28 85 -11 17 9 30 11 30
5 0 -5 7 -10 15 -10 12 0 15 18 15 101 0 90 -2 100 -17 97 -15 -3 -19 -16 -21
-73 -3 -78 -14 -97 -51 -93 -25 3 -26 6 -31 83 -4 66 -8 80 -22 83 -16 3 -18
-6 -18 -82z"/>
<path d="M4327 2533 c-4 -3 -7 -48 -7 -100 0 -86 1 -93 20 -93 18 0 20 7 20
68 0 57 4 72 21 88 15 14 24 16 37 8 13 -9 18 -29 20 -88 3 -68 5 -76 22 -76
18 0 20 7 20 68 0 57 4 72 21 88 15 14 24 16 37 8 13 -9 18 -29 20 -88 3 -68
5 -76 22 -76 18 0 20 7 20 78 0 90 -15 122 -59 122 -15 0 -36 -6 -46 -14 -16
-11 -22 -11 -46 3 -23 13 -34 14 -58 4 -18 -6 -33 -7 -37 -2 -6 11 -18 12 -27
2z"/>
<path d="M4667 2534 c-4 -4 -7 -49 -7 -101 0 -87 1 -93 20 -93 20 0 21 5 18
97 -3 89 -12 116 -31 97z"/>
<path d="M4757 2533 c-4 -3 -7 -48 -7 -100 0 -86 1 -93 20 -93 18 0 20 7 20
68 0 57 4 72 21 88 15 14 24 16 37 8 13 -9 18 -29 20 -88 3 -68 5 -76 22 -76
18 0 20 7 20 83 0 69 -3 87 -18 100 -21 19 -54 22 -82 7 -13 -7 -21 -7 -25 0
-7 12 -19 13 -28 3z"/>
<path d="M5197 2522 c-34 -37 -15 -78 46 -101 16 -6 27 -18 27 -30 0 -25 -23
-33 -57 -20 -30 11 -51 -2 -30 -19 29 -24 71 -25 100 -2 41 32 34 68 -18 97
-54 30 -55 59 -2 56 26 -2 37 2 37 11 0 30 -78 36 -103 8z"/>
<path d="M2790 1636 c0 -139 1 -146 20 -146 18 0 20 7 20 68 0 57 4 72 21 88
15 14 24 16 37 8 13 -9 18 -29 20 -88 3 -68 5 -76 22 -76 18 0 20 7 20 83 0
69 -3 87 -18 100 -21 19 -59 22 -82 7 -12 -8 -16 -1 -20 43 -4 39 -9 53 -22
55 -17 3 -18 -9 -18 -142z"/>
<path d="M5567 1773 c-4 -3 -7 -29 -7 -57 0 -39 -3 -47 -12 -38 -22 22 -75 14
-97 -14 -32 -40 -29 -126 4 -159 28 -29 48 -31 88 -11 15 8 27 11 27 5 0 -5 7
-9 15 -9 13 0 15 23 15 145 0 114 -3 145 -13 145 -8 0 -17 -3 -20 -7z m-23
-132 c12 -13 16 -32 14 -62 -3 -37 -7 -45 -30 -53 -39 -14 -58 6 -58 60 0 65
39 94 74 55z"/>
<path d="M6387 1773 c-4 -3 -7 -69 -7 -145 0 -131 1 -138 20 -138 19 0 20 7
20 145 0 114 -3 145 -13 145 -8 0 -17 -3 -20 -7z"/>
<path d="M2030 1750 c0 -6 16 -42 35 -80 27 -54 35 -82 35 -125 0 -48 2 -55
20 -55 17 0 20 7 20 50 0 39 9 69 40 130 22 44 40 82 40 85 0 3 -8 5 -18 5
-12 0 -28 -21 -49 -62 l-31 -63 -28 60 c-17 34 -37 61 -46 63 -10 2 -18 -1
-18 -8z"/>
<path d="M3707 1753 c-4 -3 -7 -35 -7 -70 l0 -63 44 0 c68 0 99 -45 59 -85
-13 -14 -28 -16 -65 -12 -38 5 -48 3 -48 -9 0 -8 12 -19 27 -25 63 -24 143 21
143 81 0 43 -39 80 -85 80 -33 0 -35 2 -35 35 l0 35 50 0 c43 0 50 3 50 20 0
18 -7 20 -63 20 -35 0 -67 -3 -70 -7z"/>
<path d="M3944 1745 c-48 -33 -56 -193 -13 -236 44 -44 104 -34 140 23 30 48
24 166 -10 202 -28 30 -83 35 -117 11z m81 -29 c27 -19 34 -135 11 -171 -18
-27 -57 -34 -74 -12 -28 35 -25 152 4 182 19 19 35 19 59 1z"/>
<path d="M4145 1734 c-28 -30 -40 -94 -30 -160 15 -101 113 -126 166 -42 30
48 24 166 -10 202 -34 36 -93 36 -126 0z m90 -18 c27 -19 34 -135 11 -171 -18
-27 -57 -33 -75 -12 -27 34 -24 153 6 182 18 19 34 19 58 1z"/>
<path d="M6287 1746 c-7 -18 1 -26 25 -26 11 0 18 7 18 20 0 23 -35 28 -43 6z"/>
<path d="M2271 1673 c-28 -23 -42 -84 -29 -129 26 -97 177 -70 180 32 1 54 -2
65 -27 89 -30 30 -92 34 -124 8z m97 -25 c7 -7 12 -33 12 -58 0 -52 -13 -70
-50 -70 -14 0 -31 5 -38 12 -18 18 -15 94 4 112 18 19 55 21 72 4z"/>
<path d="M2470 1608 c0 -100 11 -121 61 -119 19 0 49 1 67 2 l32 0 0 100 c0
90 -2 100 -17 97 -15 -3 -19 -16 -21 -73 -3 -78 -14 -97 -51 -93 -25 3 -26 6
-31 83 -4 66 -8 80 -22 83 -16 3 -18 -6 -18 -80z"/>
<path d="M3028 1679 c-10 -5 -18 -17 -18 -26 0 -11 5 -13 18 -8 35 15 63 17
77 5 26 -22 17 -37 -26 -43 -50 -7 -79 -31 -79 -68 0 -38 39 -64 77 -53 16 4
39 8 53 8 24 1 25 4 26 61 2 66 -9 115 -28 127 -18 11 -80 9 -100 -3z m90
-121 c-3 -24 -43 -49 -64 -41 -17 6 -18 50 -1 56 6 3 25 6 40 6 24 1 28 -3 25
-21z"/>
<path d="M3188 1684 c-6 -5 15 -69 54 -166 7 -19 18 -28 33 -28 19 0 27 13 54
86 35 98 38 117 14 112 -10 -2 -25 -28 -39 -72 -13 -38 -26 -71 -28 -73 -2 -2
-15 29 -28 69 -22 66 -42 90 -60 72z"/>
<path d="M3432 1683 c-21 -8 -42 -60 -42 -103 0 -33 6 -48 29 -71 17 -17 40
-29 55 -29 36 0 76 17 76 34 0 10 -11 12 -45 8 -49 -5 -75 8 -75 39 0 17 8 19
65 19 65 0 65 0 65 29 0 46 -35 81 -78 80 -20 0 -43 -3 -50 -6z m76 -35 c25
-25 13 -38 -33 -38 -33 0 -45 4 -45 15 0 29 56 45 78 23z"/>
<path d="M4440 1606 c0 -62 4 -89 15 -100 25 -24 52 -28 85 -11 17 9 30 11 30
5 0 -5 7 -10 15 -10 12 0 15 18 15 101 0 90 -2 100 -17 97 -15 -3 -19 -16 -21
-73 -3 -78 -14 -97 -51 -93 -25 3 -26 6 -31 83 -4 66 -8 80 -22 83 -16 3 -18
-6 -18 -82z"/>
<path d="M4660 1590 c0 -93 1 -100 20 -100 18 0 20 7 20 68 0 57 4 72 21 88
15 14 24 16 37 8 13 -9 18 -29 20 -88 3 -68 5 -76 22 -76 18 0 20 7 20 78 0
54 -5 84 -16 100 -16 24 -53 29 -84 12 -13 -7 -21 -7 -25 0 -3 5 -13 10 -21
10 -11 0 -14 -20 -14 -100z"/>
<path d="M4887 1683 c-4 -3 -7 -48 -7 -100 0 -86 1 -93 20 -93 18 0 20 7 20
65 0 51 4 69 20 85 11 11 26 17 35 14 10 -4 15 0 15 15 0 15 -6 21 -23 21 -13
0 -28 -5 -34 -11 -8 -8 -13 -8 -17 0 -8 12 -20 14 -29 4z"/>
<path d="M5062 1683 c-21 -8 -42 -59 -42 -102 0 -60 35 -96 93 -96 44 0 85 21
70 36 -4 4 -25 4 -45 0 -43 -10 -78 8 -78 40 0 17 7 19 65 19 65 0 65 0 65 29
0 46 -35 81 -78 80 -20 0 -43 -3 -50 -6z m76 -35 c25 -25 13 -38 -33 -38 -30
0 -45 4 -45 13 0 19 21 37 45 37 12 0 26 -5 33 -12z"/>
<path d="M5248 1679 c-10 -5 -18 -17 -18 -26 0 -11 5 -13 18 -8 35 15 63 17
77 5 26 -22 16 -37 -27 -44 -52 -8 -78 -30 -78 -66 0 -35 22 -53 63 -52 17 1
44 2 60 2 19 1 27 6 29 20 6 66 6 88 1 118 -3 18 -12 40 -20 47 -17 17 -80 19
-105 4z m92 -117 c0 -26 -20 -42 -52 -42 -23 0 -28 4 -28 24 0 27 11 34 53 35
20 1 27 -4 27 -17z"/>
<path d="M5757 1683 c-4 -3 -7 -48 -7 -100 0 -86 1 -93 20 -93 18 0 20 7 20
68 0 57 4 72 21 88 15 14 24 16 37 8 13 -9 18 -29 20 -88 3 -68 5 -76 22 -76
18 0 20 7 20 70 0 63 2 71 25 86 41 27 55 6 55 -82 0 -67 2 -74 20 -74 18 0
20 7 20 78 0 90 -15 122 -58 122 -15 0 -37 -7 -49 -15 -18 -13 -22 -13 -33 0
-14 17 -53 20 -80 5 -13 -7 -21 -7 -25 0 -7 12 -19 13 -28 3z"/>
<path d="M6108 1679 c-10 -5 -18 -17 -18 -26 0 -11 5 -13 18 -8 35 15 63 17
77 5 26 -22 16 -37 -27 -44 -52 -8 -78 -30 -78 -66 0 -35 22 -53 63 -52 17 1
44 2 59 2 28 1 37 21 33 75 -1 17 -3 44 -4 62 0 17 -8 39 -17 47 -17 18 -80
21 -106 5z m92 -119 c0 -24 -41 -53 -64 -44 -19 7 -22 50 -3 57 6 3 24 6 40 6
20 1 27 -4 27 -19z"/>
<path d="M6297 1683 c-4 -3 -7 -48 -7 -100 0 -86 1 -93 20 -93 19 0 20 7 20
100 0 77 -3 100 -13 100 -8 0 -17 -3 -20 -7z"/>
<path d="M6480 1515 c0 -22 4 -26 23 -23 14 2 22 10 22 23 0 13 -8 21 -22 23
-19 3 -23 -1 -23 -23z"/>
</g>
</svg>
